<?xml version="1.0" encoding="UTF-8" standalone="no"?><svg xmlns="http://www.w3.org/2000/svg" xmlns:xlink="http://www.w3.org/1999/xlink" contentScriptType="application/ecmascript" contentStyleType="text/css" height="285px" preserveAspectRatio="none" style="width:448px;height:285px;" version="1.1" viewBox="0 0 448 285" width="448px" zoomAndPan="magnify"><defs/><g><!--MD5=[7c014904a223f73b41070b51bc30a5fb]
class entity_1--><rect fill="#FEFECE" height="94.8906" id="entity_1" style="stroke: #A80036; stroke-width: 1.5;" width="198" x="6" y="8"/><ellipse cx="74" cy="23" fill="#ADD1B2" rx="10" ry="10" style="stroke: #A80036; stroke-width: 1.0;"/><path d="M77,28 L70.6563,28 L70.6563,17.7969 L77,17.7969 L77,19.5781 L72.6719,19.5781 L72.6719,21.7656 L76.5938,21.7656 L76.5938,23.5469 L72.6719,23.5469 L72.6719,26.2188 L77,26.2188 L77,28 Z "/><text fill="#000000" font-family="Consolas" font-size="14" lengthAdjust="spacingAndGlyphs" textLength="54" x="93" y="27.8467">entity_1</text><line style="stroke: #A80036; stroke-width: 1.5;" x1="7" x2="203" y1="38" y2="38"/><ellipse cx="17" cy="49" fill="#000000" rx="3" ry="3" style="stroke: #000000; stroke-width: 1.0;"/><text fill="#000000" font-family="Consolas" font-size="14" lengthAdjust="spacingAndGlyphs" textLength="118" x="25" y="54.9951">entity_1_id: serial</text><line style="stroke: #A80036; stroke-width: 1.0;" x1="7" x2="203" y1="62.2969" y2="62.2969"/><text fill="#000000" font-family="Consolas" font-size="14" lengthAdjust="spacingAndGlyphs" textLength="121" x="12" y="79.292">attribute_1: float4</text><text fill="#000000" font-family="Consolas" font-size="14" lengthAdjust="spacingAndGlyphs" textLength="186" x="12" y="95.5889">note: character varying(32)</text><!--MD5=[8acf2364f2de99e24746537d3e03c204]
class entity_2--><rect fill="#FEFECE" height="94.8906" id="entity_2" style="stroke: #A80036; stroke-width: 1.5;" width="198" x="239" y="8"/><ellipse cx="307" cy="23" fill="#ADD1B2" rx="10" ry="10" style="stroke: #A80036; stroke-width: 1.0;"/><path d="M310,28 L303.6563,28 L303.6563,17.7969 L310,17.7969 L310,19.5781 L305.6719,19.5781 L305.6719,21.7656 L309.5938,21.7656 L309.5938,23.5469 L305.6719,23.5469 L305.6719,26.2188 L310,26.2188 L310,28 Z "/><text fill="#000000" font-family="Consolas" font-size="14" lengthAdjust="spacingAndGlyphs" textLength="54" x="326" y="27.8467">entity_2</text><line style="stroke: #A80036; stroke-width: 1.5;" x1="240" x2="436" y1="38" y2="38"/><ellipse cx="250" cy="49" fill="#000000" rx="3" ry="3" style="stroke: #000000; stroke-width: 1.0;"/><text fill="#000000" font-family="Consolas" font-size="14" lengthAdjust="spacingAndGlyphs" textLength="118" x="258" y="54.9951">entity_2_id: serial</text><line style="stroke: #A80036; stroke-width: 1.0;" x1="240" x2="436" y1="62.2969" y2="62.2969"/><text fill="#000000" font-family="Consolas" font-size="14" lengthAdjust="spacingAndGlyphs" textLength="109" x="245" y="79.292">attribute_2: int8</text><text fill="#000000" font-family="Consolas" font-size="14" lengthAdjust="spacingAndGlyphs" textLength="186" x="245" y="95.5889">note: character varying(32)</text><!--MD5=[840b89850123548437c01c2b109d021d]
class entity_3--><rect fill="#FEFECE" height="111.1875" id="entity_3" style="stroke: #A80036; stroke-width: 1.5;" width="172" x="135" y="163"/><ellipse cx="190" cy="178" fill="#ADD1B2" rx="10" ry="10" style="stroke: #A80036; stroke-width: 1.0;"/><path d="M193,183 L186.6563,183 L186.6563,172.7969 L193,172.7969 L193,174.5781 L188.6719,174.5781 L188.6719,176.7656 L192.5938,176.7656 L192.5938,178.5469 L188.6719,178.5469 L188.6719,181.2188 L193,181.2188 L193,183 Z "/><text fill="#000000" font-family="Consolas" font-size="14" lengthAdjust="spacingAndGlyphs" textLength="54" x="209" y="182.8467">entity_3</text><line style="stroke: #A80036; stroke-width: 1.5;" x1="136" x2="306" y1="193" y2="193"/><ellipse cx="146" cy="204" fill="#000000" rx="3" ry="3" style="stroke: #000000; stroke-width: 1.0;"/><text fill="#000000" font-family="Consolas" font-size="14" lengthAdjust="spacingAndGlyphs" textLength="118" x="154" y="209.9951">entity_3_id: serial</text><line style="stroke: #A80036; stroke-width: 1.0;" x1="136" x2="306" y1="217.2969" y2="217.2969"/><ellipse cx="146" cy="228.2969" fill="#000000" rx="3" ry="3" style="stroke: #000000; stroke-width: 1.0;"/><text fill="#000000" font-family="Consolas" font-size="14" lengthAdjust="spacingAndGlyphs" textLength="147" x="154" y="234.292">entity_1_id: int4 «FK»</text><ellipse cx="146" cy="244.5938" fill="#000000" rx="3" ry="3" style="stroke: #000000; stroke-width: 1.0;"/><text fill="#000000" font-family="Consolas" font-size="14" lengthAdjust="spacingAndGlyphs" textLength="147" x="154" y="250.5889">entity_2_id: int4 «FK»</text><text fill="#000000" font-family="Consolas" font-size="14" lengthAdjust="spacingAndGlyphs" textLength="121" x="154" y="266.8857">attribute_3: float8</text><!--MD5=[dc9f1bccf5b273933f901f8218d4d96b]
link entity_1 to entity_3--><path d="M143.6215,109.7699 C154.1417,124.5525 165.6228,140.6855 176.4434,155.8903 " fill="none" id="entity_1-entity_3" style="stroke: #A80036; stroke-width: 1.5;"/><line style="stroke: #A80036; stroke-width: 1.5;" x1="176.7242" x2="186.2512" y1="156.2847" y2="159.3238"/><line style="stroke: #A80036; stroke-width: 1.5;" x1="176.7242" x2="176.4742" y1="156.2847" y2="166.2816"/><line style="stroke: #A80036; stroke-width: 1.5;" x1="176.7242" x2="181.3627" y1="156.2847" y2="162.8027"/><ellipse cx="173.2452" cy="151.3963" fill="none" rx="4" ry="4" style="stroke: #A80036; stroke-width: 1.5;"/><line style="stroke: #A80036; stroke-width: 1.5;" x1="137.9241" x2="144.4421" y1="108.6628" y2="104.0242"/><line style="stroke: #A80036; stroke-width: 1.5;" x1="139.6635" x2="146.1815" y1="111.107" y2="106.4684"/><line style="stroke: #A80036; stroke-width: 1.5;" x1="143.5023" x2="138.8638" y1="109.6025" y2="103.0845"/><!--MD5=[b6ea13ccadf47121bde2441a88c5f34d]
link entity_2 to entity_3--><path d="M299.0455,109.7699 C288.3391,124.6857 276.6458,140.9763 265.6459,156.301 " fill="none" id="entity_2-entity_3" style="stroke: #A80036; stroke-width: 1.5;"/><line style="stroke: #A80036; stroke-width: 1.5;" x1="265.644" x2="265.8533" y1="156.3037" y2="166.3015"/><line style="stroke: #A80036; stroke-width: 1.5;" x1="265.644" x2="256.1047" y1="156.3037" y2="159.3039"/><line style="stroke: #A80036; stroke-width: 1.5;" x1="265.644" x2="260.979" y1="156.3037" y2="162.8027"/><ellipse cx="269.1428" cy="151.4294" fill="none" rx="4" ry="4" style="stroke: #A80036; stroke-width: 1.5;"/><line style="stroke: #A80036; stroke-width: 1.5;" x1="298.2622" x2="304.7613" y1="104.0016" y2="108.6665"/><line style="stroke: #A80036; stroke-width: 1.5;" x1="296.5128" x2="303.0119" y1="106.4387" y2="111.1037"/><line style="stroke: #A80036; stroke-width: 1.5;" x1="299.1792" x2="303.8442" y1="109.5836" y2="103.0845"/><!--MD5=[59026528965a46830599d2fcc667be04]
@startuml entity-relationship
!include style.wsd

'- - - - - - - - - - - - - - - - - - - - - - - - - - - - - - - - - - - -'
' entities
'- - - - - - - - - - - - - - - - - - - - - - - - - - - - - - - - - - - -'

entity entity_1 {
  * entity_1_id: serial
  - -
  attribute_1: float4
  note: character varying(32)
}

entity entity_2 {
  * entity_2_id: serial
  - -
  attribute_2: int8
  note: character varying(32)
}

entity entity_3 {
  * entity_3_id: serial
  - -
  * entity_1_id: int4 <<FK>>
  * entity_2_id: int4 <<FK>>
  attribute_3: float8
}

'- - - - - - - - - - - - - - - - - - - - - - - - - - - - - - - - - - - -'
' relations
'- - - - - - - - - - - - - - - - - - - - - - - - - - - - - - - - - - - -'

entity_1 ||- -o{ entity_3
entity_2 ||- -o{ entity_3

@enduml

@startuml entity-relationship

skinparam shadowing false
skinparam DefaultFontName Consolas
skinparam DefaultFontSize 14
skinparam ArrowThickness 1.5



entity entity_1 {
  * entity_1_id: serial
  - -
  attribute_1: float4
  note: character varying(32)
}

entity entity_2 {
  * entity_2_id: serial
  - -
  attribute_2: int8
  note: character varying(32)
}

entity entity_3 {
  * entity_3_id: serial
  - -
  * entity_1_id: int4 <<FK>>
  * entity_2_id: int4 <<FK>>
  attribute_3: float8
}


entity_1 ||- -o{ entity_3
entity_2 ||- -o{ entity_3

@enduml

PlantUML version 1.2020.10(Sun May 17 18:35:57 JST 2020)
(GPL source distribution)
Java Runtime: OpenJDK Runtime Environment
JVM: OpenJDK 64-Bit Server VM
Java Version: 14+36-1461
Operating System: Linux
Default Encoding: UTF-8
Language: en
Country: US
--></g></svg>